<svg id="Layer_1" data-name="Layer 1" xmlns="http://www.w3.org/2000/svg" viewBox="0 0 684.19 221.08"><defs><style>.cls-1{fill:none;stroke:#000;}.cls-1,.cls-2,.cls-3,.cls-4{stroke-miterlimit:10;}.cls-2{fill:#336;stroke:#336;}.cls-3,.cls-5,.cls-7{fill:#0062a4;}.cls-3{stroke:#0062a4;}.cls-4{fill:#2ca4dd;stroke:#2ca4dd;}.cls-5{font-size:69.61px;letter-spacing:0.05em;}.cls-5,.cls-7{font-family:zwodrei-Bold, zwodrei - free;font-weight:700;}.cls-6{letter-spacing:0.01em;}.cls-7{font-size:39.85px;}.cls-8{letter-spacing:-0.11em;}.cls-9{letter-spacing:-0.01em;}.cls-10{letter-spacing:-0.07em;}</style></defs><path class="cls-1" d="M154.22,373.37" transform="translate(-45.82 -181.86)"/><path class="cls-1" d="M154.32,401.37" transform="translate(-45.82 -181.86)"/><path class="cls-2" d="M46.38,281.91c0-15.67,0-27.34,0-27.34l23.51,13.78-.19,69.15L130,371.86l.09,28L46.32,350.91Z" transform="translate(-45.82 -181.86)"/><path class="cls-3" d="M241,281.91c0-15.67,0-27.34,0-27.34L217.5,268.35l.18,69.15-63.32,36.56-.1,28,86.84-51.15Z" transform="translate(-45.82 -181.86)"/><path class="cls-4" d="M83.72,217c-13.56,7.85-25.56,15.36-25.56,15.36L80.61,246l62.93-36.56L206.87,246l24.3-13.92-87.72-49.62Z" transform="translate(-45.82 -181.86)"/><path class="cls-2" d="M91.21,265.11l52.43,30.49v60.16L91.39,325.68Z" transform="translate(-45.82 -181.86)"/><path class="cls-3" d="M197.06,265l-52.44,30.57v60.33l52.26-30.17Z" transform="translate(-45.82 -181.86)"/><path class="cls-4" d="M91.7,264.24l52.55,30.55L196.48,264l-52.11-30.18Z" transform="translate(-45.82 -181.86)"/><text class="cls-5" transform="translate(221.74 105.72) scale(0.93 1)">S<tspan class="cls-6" x="41.97" y="0">T</tspan><tspan x="80.95" y="0">OCKTRADER</tspan></text><text class="cls-7" transform="translate(224.34 161.16) scale(0.94 1)">PREDICTIVE<tspan class="cls-8" x="211.05" y="0">L</tspan><tspan x="227.94" y="0">Y P</tspan><tspan class="cls-9" x="286.09" y="0">R</tspan><tspan x="310.03" y="0">OFI</tspan><tspan class="cls-10" x="369.17" y="0">T</tspan><tspan x="388.22" y="0">ABLE</tspan></text></svg>